<svg width="275" height="271" viewBox="0 0 275 271" fill="none" xmlns="http://www.w3.org/2000/svg">
<path d="M37.166 228.15C24.3496 214.672 14.465 198.753 8.11934 181.373C1.77371 163.992 -0.898915 145.517 0.265643 127.081C1.4302 108.646 6.40735 90.6396 14.8913 74.1689C23.3753 57.6981 35.187 43.1107 49.6007 31.3026C64.0144 19.4946 80.7258 10.7153 98.7082 5.50421C116.691 0.29308 135.564 -1.23989 154.17 0.999487C172.776 3.23886 190.72 9.20328 206.901 18.5263C223.082 27.8494 237.158 40.3342 248.264 55.2138L137.5 135.5L37.166 228.15Z" fill="#EE2E2E"/>
<path d="M179.309 264.584C154.499 272.388 127.951 273.088 102.753 266.602C77.555 260.117 54.7443 246.712 36.9755 227.949L137.5 135.5L179.309 264.584Z" fill="#4158ED"/>
<path d="M248.756 55.8764C261.491 73.1576 269.901 93.161 273.299 114.255C276.698 135.348 274.988 156.935 268.309 177.253C261.631 197.572 250.173 216.047 234.871 231.172C219.568 246.296 200.854 257.642 180.255 264.283L137.5 135.5L248.756 55.8764Z" fill="#3DA434"/>
<path d="M189.653 167.384C188.095 167.384 186.549 167.181 185.013 166.776C183.477 166.349 182.175 165.752 181.109 164.984L183.125 161.016C183.978 161.635 184.97 162.125 186.101 162.488C187.231 162.851 188.373 163.032 189.525 163.032C190.826 163.032 191.85 162.776 192.597 162.264C193.343 161.752 193.717 161.048 193.717 160.152C193.717 159.299 193.386 158.627 192.725 158.136C192.063 157.645 190.997 157.4 189.525 157.4H187.157V153.976L193.397 146.904L193.973 148.76H182.229V144.6H197.909V147.96L191.701 155.032L189.077 153.528H190.581C193.333 153.528 195.413 154.147 196.821 155.384C198.229 156.621 198.933 158.211 198.933 160.152C198.933 161.411 198.602 162.595 197.941 163.704C197.279 164.792 196.266 165.677 194.901 166.36C193.535 167.043 191.786 167.384 189.653 167.384ZM210.926 167.384C209.091 167.384 207.449 166.936 205.998 166.04C204.547 165.123 203.406 163.8 202.574 162.072C201.742 160.344 201.326 158.253 201.326 155.8C201.326 153.347 201.742 151.256 202.574 149.528C203.406 147.8 204.547 146.488 205.998 145.592C207.449 144.675 209.091 144.216 210.926 144.216C212.782 144.216 214.425 144.675 215.854 145.592C217.305 146.488 218.446 147.8 219.278 149.528C220.11 151.256 220.526 153.347 220.526 155.8C220.526 158.253 220.11 160.344 219.278 162.072C218.446 163.8 217.305 165.123 215.854 166.04C214.425 166.936 212.782 167.384 210.926 167.384ZM210.926 163C211.801 163 212.558 162.755 213.198 162.264C213.859 161.773 214.371 160.995 214.734 159.928C215.118 158.861 215.31 157.485 215.31 155.8C215.31 154.115 215.118 152.739 214.734 151.672C214.371 150.605 213.859 149.827 213.198 149.336C212.558 148.845 211.801 148.6 210.926 148.6C210.073 148.6 209.315 148.845 208.654 149.336C208.014 149.827 207.502 150.605 207.118 151.672C206.755 152.739 206.574 154.115 206.574 155.8C206.574 157.485 206.755 158.861 207.118 159.928C207.502 160.995 208.014 161.773 208.654 162.264C209.315 162.755 210.073 163 210.926 163ZM226.277 167L241.573 144.6H245.381L230.085 167H226.277ZM228.229 156.696C227.141 156.696 226.181 156.451 225.349 155.96C224.517 155.448 223.856 154.733 223.365 153.816C222.896 152.877 222.661 151.779 222.661 150.52C222.661 149.261 222.896 148.173 223.365 147.256C223.856 146.339 224.517 145.624 225.349 145.112C226.181 144.6 227.141 144.344 228.229 144.344C229.317 144.344 230.277 144.6 231.109 145.112C231.941 145.624 232.592 146.339 233.061 147.256C233.53 148.173 233.765 149.261 233.765 150.52C233.765 151.779 233.53 152.877 233.061 153.816C232.592 154.733 231.941 155.448 231.109 155.96C230.277 156.451 229.317 156.696 228.229 156.696ZM228.229 154.072C228.933 154.072 229.498 153.784 229.925 153.208C230.352 152.611 230.565 151.715 230.565 150.52C230.565 149.325 230.352 148.44 229.925 147.864C229.498 147.267 228.933 146.968 228.229 146.968C227.546 146.968 226.981 147.267 226.533 147.864C226.106 148.44 225.893 149.325 225.893 150.52C225.893 151.693 226.106 152.579 226.533 153.176C226.981 153.773 227.546 154.072 228.229 154.072ZM243.429 167.256C242.362 167.256 241.402 167.011 240.549 166.52C239.717 166.008 239.066 165.293 238.597 164.376C238.128 163.437 237.893 162.339 237.893 161.08C237.893 159.821 238.128 158.733 238.597 157.816C239.066 156.899 239.717 156.184 240.549 155.672C241.402 155.16 242.362 154.904 243.429 154.904C244.538 154.904 245.509 155.16 246.341 155.672C247.173 156.184 247.824 156.899 248.293 157.816C248.762 158.733 248.997 159.821 248.997 161.08C248.997 162.339 248.762 163.437 248.293 164.376C247.824 165.293 247.173 166.008 246.341 166.52C245.509 167.011 244.538 167.256 243.429 167.256ZM243.429 164.632C244.133 164.632 244.698 164.344 245.125 163.768C245.552 163.171 245.765 162.275 245.765 161.08C245.765 159.907 245.552 159.021 245.125 158.424C244.698 157.827 244.133 157.528 243.429 157.528C242.746 157.528 242.181 157.827 241.733 158.424C241.306 159 241.093 159.885 241.093 161.08C241.093 162.275 241.306 163.171 241.733 163.768C242.181 164.344 242.746 164.632 243.429 164.632Z" fill="white"/>
<path d="M88.0009 232V211.52L90.2409 213.76H83.5209V209.6H93.1849V232H88.0009ZM106.356 232.384C104.479 232.384 102.836 232.107 101.428 231.552C100.02 230.976 98.9215 230.176 98.1321 229.152C97.3428 228.107 96.9481 226.891 96.9481 225.504C96.9481 224.117 97.3321 222.944 98.1001 221.984C98.8895 221.003 99.9881 220.267 101.396 219.776C102.804 219.264 104.457 219.008 106.356 219.008C108.276 219.008 109.94 219.264 111.348 219.776C112.777 220.267 113.876 221.003 114.644 221.984C115.433 222.944 115.828 224.117 115.828 225.504C115.828 226.891 115.433 228.107 114.644 229.152C113.855 230.176 112.745 230.976 111.316 231.552C109.908 232.107 108.255 232.384 106.356 232.384ZM106.356 228.576C107.657 228.576 108.681 228.288 109.428 227.712C110.196 227.136 110.58 226.347 110.58 225.344C110.58 224.341 110.196 223.563 109.428 223.008C108.681 222.432 107.657 222.144 106.356 222.144C105.076 222.144 104.063 222.432 103.316 223.008C102.569 223.563 102.196 224.341 102.196 225.344C102.196 226.347 102.569 227.136 103.316 227.712C104.063 228.288 105.076 228.576 106.356 228.576ZM106.356 221.632C104.628 221.632 103.113 221.397 101.812 220.928C100.532 220.459 99.5295 219.776 98.8041 218.88C98.1001 217.963 97.7481 216.875 97.7481 215.616C97.7481 214.293 98.1108 213.163 98.8361 212.224C99.5615 211.264 100.575 210.528 101.876 210.016C103.177 209.483 104.671 209.216 106.356 209.216C108.084 209.216 109.588 209.483 110.868 210.016C112.169 210.528 113.183 211.264 113.908 212.224C114.655 213.163 115.028 214.293 115.028 215.616C115.028 216.875 114.665 217.963 113.94 218.88C113.236 219.776 112.233 220.459 110.932 220.928C109.631 221.397 108.105 221.632 106.356 221.632ZM106.356 218.592C107.444 218.592 108.297 218.347 108.916 217.856C109.556 217.365 109.876 216.693 109.876 215.84C109.876 214.944 109.545 214.251 108.884 213.76C108.244 213.269 107.401 213.024 106.356 213.024C105.332 213.024 104.5 213.269 103.86 213.76C103.22 214.251 102.9 214.944 102.9 215.84C102.9 216.693 103.209 217.365 103.828 217.856C104.447 218.347 105.289 218.592 106.356 218.592ZM121.121 232L136.417 209.6H140.225L124.929 232H121.121ZM123.073 221.696C121.985 221.696 121.025 221.451 120.193 220.96C119.361 220.448 118.699 219.733 118.209 218.816C117.739 217.877 117.505 216.779 117.505 215.52C117.505 214.261 117.739 213.173 118.209 212.256C118.699 211.339 119.361 210.624 120.193 210.112C121.025 209.6 121.985 209.344 123.073 209.344C124.161 209.344 125.121 209.6 125.953 210.112C126.785 210.624 127.435 211.339 127.905 212.256C128.374 213.173 128.609 214.261 128.609 215.52C128.609 216.779 128.374 217.877 127.905 218.816C127.435 219.733 126.785 220.448 125.953 220.96C125.121 221.451 124.161 221.696 123.073 221.696ZM123.073 219.072C123.777 219.072 124.342 218.784 124.769 218.208C125.195 217.611 125.409 216.715 125.409 215.52C125.409 214.325 125.195 213.44 124.769 212.864C124.342 212.267 123.777 211.968 123.073 211.968C122.39 211.968 121.825 212.267 121.377 212.864C120.95 213.44 120.737 214.325 120.737 215.52C120.737 216.693 120.95 217.579 121.377 218.176C121.825 218.773 122.39 219.072 123.073 219.072ZM138.273 232.256C137.206 232.256 136.246 232.011 135.393 231.52C134.561 231.008 133.91 230.293 133.441 229.376C132.971 228.437 132.737 227.339 132.737 226.08C132.737 224.821 132.971 223.733 133.441 222.816C133.91 221.899 134.561 221.184 135.393 220.672C136.246 220.16 137.206 219.904 138.273 219.904C139.382 219.904 140.353 220.16 141.185 220.672C142.017 221.184 142.667 221.899 143.137 222.816C143.606 223.733 143.841 224.821 143.841 226.08C143.841 227.339 143.606 228.437 143.137 229.376C142.667 230.293 142.017 231.008 141.185 231.52C140.353 232.011 139.382 232.256 138.273 232.256ZM138.273 229.632C138.977 229.632 139.542 229.344 139.969 228.768C140.395 228.171 140.609 227.275 140.609 226.08C140.609 224.907 140.395 224.021 139.969 223.424C139.542 222.827 138.977 222.528 138.273 222.528C137.59 222.528 137.025 222.827 136.577 223.424C136.15 224 135.937 224.885 135.937 226.08C135.937 227.275 136.15 228.171 136.577 228.768C137.025 229.344 137.59 229.632 138.273 229.632Z" fill="white"/>
<path d="M69.3015 106.384C67.7442 106.384 66.1975 106.181 64.6615 105.776C63.1468 105.349 61.8455 104.752 60.7575 103.984L62.8055 100.016C63.6588 100.635 64.6402 101.125 65.7495 101.488C66.8802 101.851 68.0215 102.032 69.1735 102.032C70.4748 102.032 71.4988 101.776 72.2455 101.264C72.9922 100.752 73.3655 100.037 73.3655 99.12C73.3655 98.544 73.2162 98.032 72.9175 97.584C72.6188 97.136 72.0855 96.7947 71.3175 96.56C70.5708 96.3253 69.5148 96.208 68.1495 96.208H62.4215L63.5735 83.6H77.2375V87.76H65.4295L68.1175 85.392L67.3175 94.384L64.6295 92.016H69.3655C71.5842 92.016 73.3655 92.3253 74.7095 92.944C76.0748 93.5413 77.0668 94.3627 77.6855 95.408C78.3042 96.4533 78.6135 97.6373 78.6135 98.96C78.6135 100.283 78.2828 101.509 77.6215 102.64C76.9602 103.749 75.9362 104.656 74.5495 105.36C73.1842 106.043 71.4348 106.384 69.3015 106.384ZM80.3685 106V102.64L89.0085 94.48C89.6912 93.8613 90.1925 93.3067 90.5125 92.816C90.8325 92.3253 91.0458 91.8773 91.1525 91.472C91.2805 91.0667 91.3445 90.6933 91.3445 90.352C91.3445 89.456 91.0352 88.7733 90.4165 88.304C89.8192 87.8133 88.9338 87.568 87.7605 87.568C86.8218 87.568 85.9472 87.7493 85.1365 88.112C84.3472 88.4747 83.6752 89.04 83.1205 89.808L79.3445 87.376C80.1978 86.096 81.3925 85.0827 82.9285 84.336C84.4645 83.5893 86.2352 83.216 88.2405 83.216C89.9045 83.216 91.3552 83.4933 92.5925 84.048C93.8512 84.5813 94.8218 85.3387 95.5045 86.32C96.2085 87.3013 96.5605 88.4747 96.5605 89.84C96.5605 90.5653 96.4645 91.2907 96.2725 92.016C96.1018 92.72 95.7392 93.4667 95.1845 94.256C94.6512 95.0453 93.8618 95.9307 92.8165 96.912L85.6485 103.664L84.6565 101.776H97.2965V106H80.3685ZM102.98 106L118.276 83.6H122.084L106.788 106H102.98ZM104.932 95.696C103.844 95.696 102.884 95.4507 102.052 94.96C101.22 94.448 100.559 93.7333 100.068 92.816C99.5987 91.8773 99.364 90.7787 99.364 89.52C99.364 88.2613 99.5987 87.1733 100.068 86.256C100.559 85.3387 101.22 84.624 102.052 84.112C102.884 83.6 103.844 83.344 104.932 83.344C106.02 83.344 106.98 83.6 107.812 84.112C108.644 84.624 109.295 85.3387 109.764 86.256C110.233 87.1733 110.468 88.2613 110.468 89.52C110.468 90.7787 110.233 91.8773 109.764 92.816C109.295 93.7333 108.644 94.448 107.812 94.96C106.98 95.4507 106.02 95.696 104.932 95.696ZM104.932 93.072C105.636 93.072 106.201 92.784 106.628 92.208C107.055 91.6107 107.268 90.7147 107.268 89.52C107.268 88.3253 107.055 87.44 106.628 86.864C106.201 86.2667 105.636 85.968 104.932 85.968C104.249 85.968 103.684 86.2667 103.236 86.864C102.809 87.44 102.596 88.3253 102.596 89.52C102.596 90.6933 102.809 91.5787 103.236 92.176C103.684 92.7733 104.249 93.072 104.932 93.072ZM120.132 106.256C119.065 106.256 118.105 106.011 117.252 105.52C116.42 105.008 115.769 104.293 115.3 103.376C114.831 102.437 114.596 101.339 114.596 100.08C114.596 98.8213 114.831 97.7333 115.3 96.816C115.769 95.8987 116.42 95.184 117.252 94.672C118.105 94.16 119.065 93.904 120.132 93.904C121.241 93.904 122.212 94.16 123.044 94.672C123.876 95.184 124.527 95.8987 124.996 96.816C125.465 97.7333 125.7 98.8213 125.7 100.08C125.7 101.339 125.465 102.437 124.996 103.376C124.527 104.293 123.876 105.008 123.044 105.52C122.212 106.011 121.241 106.256 120.132 106.256ZM120.132 103.632C120.836 103.632 121.401 103.344 121.828 102.768C122.255 102.171 122.468 101.275 122.468 100.08C122.468 98.9067 122.255 98.0213 121.828 97.424C121.401 96.8267 120.836 96.528 120.132 96.528C119.449 96.528 118.884 96.8267 118.436 97.424C118.009 98 117.796 98.8853 117.796 100.08C117.796 101.275 118.009 102.171 118.436 102.768C118.884 103.344 119.449 103.632 120.132 103.632Z" fill="white"/>
</svg>
