<svg width="431" height="271" viewBox="0 0 431 271" fill="none" xmlns="http://www.w3.org/2000/svg">
<path d="M165.316 10.5463C186.648 1.72934 209.891 -1.64188 232.896 0.744664C255.9 3.13121 277.922 11.1984 296.922 24.1994C315.923 37.2005 331.288 54.7151 341.595 75.1221C351.902 95.5291 356.819 118.169 355.889 140.945L218.5 135.5L165.316 10.5463Z" fill="#EE2E2E"/>
<path d="M81 135.5C81 108.274 89.3226 81.68 104.883 59.1832C120.444 36.6865 142.52 19.3308 168.236 9.3782L218.5 135.5L81 135.5Z" fill="#4158ED"/>
<path d="M355.893 140.835C354.476 176.289 339.003 209.78 312.8 234.113C286.597 258.447 251.753 271.681 215.756 270.973C179.758 270.265 145.479 255.671 120.282 230.326C95.0848 204.982 80.9808 170.909 81 135.428L218.5 135.5L355.893 140.835Z" fill="#3DA434"/>
<path d="M197.789 206.296V202.808L208.349 188.6H213.789L203.453 202.808L200.925 202.072H218.557V206.296H197.789ZM209.853 211V206.296L210.013 202.072V197.88H214.909V211H209.853ZM227.886 188.216C229.955 188.216 231.736 188.643 233.23 189.496C234.723 190.349 235.875 191.597 236.686 193.24C237.496 194.861 237.902 196.888 237.902 199.32C237.902 201.901 237.411 204.088 236.43 205.88C235.47 207.672 234.136 209.037 232.43 209.976C230.723 210.915 228.739 211.384 226.478 211.384C225.304 211.384 224.174 211.256 223.086 211C221.998 210.744 221.059 210.36 220.27 209.848L222.19 206.04C222.808 206.467 223.47 206.765 224.174 206.936C224.878 207.085 225.614 207.16 226.382 207.16C228.302 207.16 229.827 206.573 230.958 205.4C232.11 204.227 232.686 202.488 232.686 200.184C232.686 199.8 232.675 199.373 232.654 198.904C232.632 198.435 232.579 197.965 232.494 197.496L233.902 198.84C233.539 199.672 233.027 200.376 232.366 200.952C231.704 201.507 230.936 201.933 230.062 202.232C229.187 202.509 228.206 202.648 227.118 202.648C225.688 202.648 224.387 202.36 223.214 201.784C222.062 201.208 221.134 200.397 220.43 199.352C219.747 198.307 219.406 197.08 219.406 195.672C219.406 194.136 219.779 192.813 220.526 191.704C221.294 190.595 222.318 189.741 223.598 189.144C224.899 188.525 226.328 188.216 227.886 188.216ZM228.206 192.088C227.459 192.088 226.808 192.227 226.254 192.504C225.699 192.76 225.262 193.144 224.942 193.656C224.622 194.147 224.462 194.733 224.462 195.416C224.462 196.44 224.803 197.261 225.486 197.88C226.19 198.477 227.118 198.776 228.27 198.776C229.016 198.776 229.678 198.637 230.254 198.36C230.851 198.061 231.31 197.656 231.63 197.144C231.95 196.632 232.11 196.056 232.11 195.416C232.11 194.776 231.95 194.211 231.63 193.72C231.331 193.208 230.894 192.813 230.318 192.536C229.742 192.237 229.038 192.088 228.206 192.088ZM243.621 211L258.917 188.6H262.725L247.429 211H243.621ZM245.573 200.696C244.485 200.696 243.525 200.451 242.693 199.96C241.861 199.448 241.199 198.733 240.709 197.816C240.239 196.877 240.005 195.779 240.005 194.52C240.005 193.261 240.239 192.173 240.709 191.256C241.199 190.339 241.861 189.624 242.693 189.112C243.525 188.6 244.485 188.344 245.573 188.344C246.661 188.344 247.621 188.6 248.453 189.112C249.285 189.624 249.935 190.339 250.405 191.256C250.874 192.173 251.109 193.261 251.109 194.52C251.109 195.779 250.874 196.877 250.405 197.816C249.935 198.733 249.285 199.448 248.453 199.96C247.621 200.451 246.661 200.696 245.573 200.696ZM245.573 198.072C246.277 198.072 246.842 197.784 247.269 197.208C247.695 196.611 247.909 195.715 247.909 194.52C247.909 193.325 247.695 192.44 247.269 191.864C246.842 191.267 246.277 190.968 245.573 190.968C244.89 190.968 244.325 191.267 243.877 191.864C243.45 192.44 243.237 193.325 243.237 194.52C243.237 195.693 243.45 196.579 243.877 197.176C244.325 197.773 244.89 198.072 245.573 198.072ZM260.773 211.256C259.706 211.256 258.746 211.011 257.893 210.52C257.061 210.008 256.41 209.293 255.941 208.376C255.471 207.437 255.237 206.339 255.237 205.08C255.237 203.821 255.471 202.733 255.941 201.816C256.41 200.899 257.061 200.184 257.893 199.672C258.746 199.16 259.706 198.904 260.773 198.904C261.882 198.904 262.853 199.16 263.685 199.672C264.517 200.184 265.167 200.899 265.637 201.816C266.106 202.733 266.341 203.821 266.341 205.08C266.341 206.339 266.106 207.437 265.637 208.376C265.167 209.293 264.517 210.008 263.685 210.52C262.853 211.011 261.882 211.256 260.773 211.256ZM260.773 208.632C261.477 208.632 262.042 208.344 262.469 207.768C262.895 207.171 263.109 206.275 263.109 205.08C263.109 203.907 262.895 203.021 262.469 202.424C262.042 201.827 261.477 201.528 260.773 201.528C260.09 201.528 259.525 201.827 259.077 202.424C258.65 203 258.437 203.885 258.437 205.08C258.437 206.275 258.65 207.171 259.077 207.768C259.525 208.344 260.09 208.632 260.773 208.632Z" fill="white"/>
<path d="M125.22 108V87.52L127.46 89.76H120.74V85.6H130.404V108H125.22ZM142.167 85.216C144.236 85.216 146.018 85.6427 147.511 86.496C149.004 87.3493 150.156 88.5973 150.967 90.24C151.778 91.8613 152.183 93.888 152.183 96.32C152.183 98.9013 151.692 101.088 150.711 102.88C149.751 104.672 148.418 106.037 146.711 106.976C145.004 107.915 143.02 108.384 140.759 108.384C139.586 108.384 138.455 108.256 137.367 108C136.279 107.744 135.34 107.36 134.551 106.848L136.471 103.04C137.09 103.467 137.751 103.765 138.455 103.936C139.159 104.085 139.895 104.16 140.663 104.16C142.583 104.16 144.108 103.573 145.239 102.4C146.391 101.227 146.967 99.488 146.967 97.184C146.967 96.8 146.956 96.3733 146.935 95.904C146.914 95.4347 146.86 94.9653 146.775 94.496L148.183 95.84C147.82 96.672 147.308 97.376 146.647 97.952C145.986 98.5067 145.218 98.9333 144.343 99.232C143.468 99.5093 142.487 99.648 141.399 99.648C139.97 99.648 138.668 99.36 137.495 98.784C136.343 98.208 135.415 97.3973 134.711 96.352C134.028 95.3067 133.687 94.08 133.687 92.672C133.687 91.136 134.06 89.8133 134.807 88.704C135.575 87.5947 136.599 86.7413 137.879 86.144C139.18 85.5253 140.61 85.216 142.167 85.216ZM142.487 89.088C141.74 89.088 141.09 89.2267 140.535 89.504C139.98 89.76 139.543 90.144 139.223 90.656C138.903 91.1467 138.743 91.7333 138.743 92.416C138.743 93.44 139.084 94.2613 139.767 94.88C140.471 95.4773 141.399 95.776 142.551 95.776C143.298 95.776 143.959 95.6373 144.535 95.36C145.132 95.0613 145.591 94.656 145.911 94.144C146.231 93.632 146.391 93.056 146.391 92.416C146.391 91.776 146.231 91.2107 145.911 90.72C145.612 90.208 145.175 89.8133 144.599 89.536C144.023 89.2373 143.319 89.088 142.487 89.088ZM157.902 108L173.198 85.6H177.006L161.71 108H157.902ZM159.854 97.696C158.766 97.696 157.806 97.4507 156.974 96.96C156.142 96.448 155.481 95.7333 154.99 94.816C154.521 93.8773 154.286 92.7787 154.286 91.52C154.286 90.2613 154.521 89.1733 154.99 88.256C155.481 87.3387 156.142 86.624 156.974 86.112C157.806 85.6 158.766 85.344 159.854 85.344C160.942 85.344 161.902 85.6 162.734 86.112C163.566 86.624 164.217 87.3387 164.686 88.256C165.155 89.1733 165.39 90.2613 165.39 91.52C165.39 92.7787 165.155 93.8773 164.686 94.816C164.217 95.7333 163.566 96.448 162.734 96.96C161.902 97.4507 160.942 97.696 159.854 97.696ZM159.854 95.072C160.558 95.072 161.123 94.784 161.55 94.208C161.977 93.6107 162.19 92.7147 162.19 91.52C162.19 90.3253 161.977 89.44 161.55 88.864C161.123 88.2667 160.558 87.968 159.854 87.968C159.171 87.968 158.606 88.2667 158.158 88.864C157.731 89.44 157.518 90.3253 157.518 91.52C157.518 92.6933 157.731 93.5787 158.158 94.176C158.606 94.7733 159.171 95.072 159.854 95.072ZM175.054 108.256C173.987 108.256 173.027 108.011 172.174 107.52C171.342 107.008 170.691 106.293 170.222 105.376C169.753 104.437 169.518 103.339 169.518 102.08C169.518 100.821 169.753 99.7333 170.222 98.816C170.691 97.8987 171.342 97.184 172.174 96.672C173.027 96.16 173.987 95.904 175.054 95.904C176.163 95.904 177.134 96.16 177.966 96.672C178.798 97.184 179.449 97.8987 179.918 98.816C180.387 99.7333 180.622 100.821 180.622 102.08C180.622 103.339 180.387 104.437 179.918 105.376C179.449 106.293 178.798 107.008 177.966 107.52C177.134 108.011 176.163 108.256 175.054 108.256ZM175.054 105.632C175.758 105.632 176.323 105.344 176.75 104.768C177.177 104.171 177.39 103.275 177.39 102.08C177.39 100.907 177.177 100.021 176.75 99.424C176.323 98.8267 175.758 98.528 175.054 98.528C174.371 98.528 173.806 98.8267 173.358 99.424C172.931 100 172.718 100.885 172.718 102.08C172.718 103.275 172.931 104.171 173.358 104.768C173.806 105.344 174.371 105.632 175.054 105.632Z" fill="white"/>
<path d="M255.496 108.384C253.939 108.384 252.392 108.181 250.856 107.776C249.32 107.349 248.019 106.752 246.952 105.984L248.968 102.016C249.822 102.635 250.814 103.125 251.944 103.488C253.075 103.851 254.216 104.032 255.368 104.032C256.67 104.032 257.694 103.776 258.44 103.264C259.187 102.752 259.56 102.048 259.56 101.152C259.56 100.299 259.23 99.6267 258.568 99.136C257.907 98.6453 256.84 98.4 255.368 98.4H253V94.976L259.24 87.904L259.816 89.76H248.072V85.6H263.752V88.96L257.544 96.032L254.92 94.528H256.424C259.176 94.528 261.256 95.1467 262.664 96.384C264.072 97.6213 264.776 99.2107 264.776 101.152C264.776 102.411 264.446 103.595 263.784 104.704C263.123 105.792 262.11 106.677 260.744 107.36C259.379 108.043 257.63 108.384 255.496 108.384ZM266.822 108V104.64L275.462 96.48C276.144 95.8613 276.646 95.3067 276.966 94.816C277.286 94.3253 277.499 93.8773 277.606 93.472C277.734 93.0667 277.798 92.6933 277.798 92.352C277.798 91.456 277.488 90.7733 276.87 90.304C276.272 89.8133 275.387 89.568 274.214 89.568C273.275 89.568 272.4 89.7493 271.59 90.112C270.8 90.4747 270.128 91.04 269.574 91.808L265.798 89.376C266.651 88.096 267.846 87.0827 269.382 86.336C270.918 85.5893 272.688 85.216 274.694 85.216C276.358 85.216 277.808 85.4933 279.046 86.048C280.304 86.5813 281.275 87.3387 281.958 88.32C282.662 89.3013 283.014 90.4747 283.014 91.84C283.014 92.5653 282.918 93.2907 282.726 94.016C282.555 94.72 282.192 95.4667 281.638 96.256C281.104 97.0453 280.315 97.9307 279.27 98.912L272.102 105.664L271.11 103.776H283.75V108H266.822ZM289.433 108L304.729 85.6H308.537L293.241 108H289.433ZM291.385 97.696C290.297 97.696 289.337 97.4507 288.505 96.96C287.673 96.448 287.012 95.7333 286.521 94.816C286.052 93.8773 285.817 92.7787 285.817 91.52C285.817 90.2613 286.052 89.1733 286.521 88.256C287.012 87.3387 287.673 86.624 288.505 86.112C289.337 85.6 290.297 85.344 291.385 85.344C292.473 85.344 293.433 85.6 294.265 86.112C295.097 86.624 295.748 87.3387 296.217 88.256C296.686 89.1733 296.921 90.2613 296.921 91.52C296.921 92.7787 296.686 93.8773 296.217 94.816C295.748 95.7333 295.097 96.448 294.265 96.96C293.433 97.4507 292.473 97.696 291.385 97.696ZM291.385 95.072C292.089 95.072 292.654 94.784 293.081 94.208C293.508 93.6107 293.721 92.7147 293.721 91.52C293.721 90.3253 293.508 89.44 293.081 88.864C292.654 88.2667 292.089 87.968 291.385 87.968C290.702 87.968 290.137 88.2667 289.689 88.864C289.262 89.44 289.049 90.3253 289.049 91.52C289.049 92.6933 289.262 93.5787 289.689 94.176C290.137 94.7733 290.702 95.072 291.385 95.072ZM306.585 108.256C305.518 108.256 304.558 108.011 303.705 107.52C302.873 107.008 302.222 106.293 301.753 105.376C301.284 104.437 301.049 103.339 301.049 102.08C301.049 100.821 301.284 99.7333 301.753 98.816C302.222 97.8987 302.873 97.184 303.705 96.672C304.558 96.16 305.518 95.904 306.585 95.904C307.694 95.904 308.665 96.16 309.497 96.672C310.329 97.184 310.98 97.8987 311.449 98.816C311.918 99.7333 312.153 100.821 312.153 102.08C312.153 103.339 311.918 104.437 311.449 105.376C310.98 106.293 310.329 107.008 309.497 107.52C308.665 108.011 307.694 108.256 306.585 108.256ZM306.585 105.632C307.289 105.632 307.854 105.344 308.281 104.768C308.708 104.171 308.921 103.275 308.921 102.08C308.921 100.907 308.708 100.021 308.281 99.424C307.854 98.8267 307.289 98.528 306.585 98.528C305.902 98.528 305.337 98.8267 304.889 99.424C304.462 100 304.249 100.885 304.249 102.08C304.249 103.275 304.462 104.171 304.889 104.768C305.337 105.344 305.902 105.632 306.585 105.632Z" fill="white"/>
</svg>
