<svg width="340" height="271" viewBox="0 0 340 271" fill="none" xmlns="http://www.w3.org/2000/svg">
<path d="M150.5 0C172.245 2.55537e-07 193.68 5.08237 213.045 14.8298C232.411 24.5773 249.154 38.7119 261.9 56.0733L150.5 135.5L150.5 0Z" fill="#EE2E2E"/>
<path d="M91.7718 12.9812C110.063 4.46674 130.035 0.0343814 150.264 0.000199197L150.5 135.5L91.7718 12.9812Z" fill="#4158ED"/>
<path d="M261.756 55.8764C278.381 78.4361 287.54 105.501 287.983 133.379C288.426 161.257 280.131 188.591 264.23 211.652C248.329 234.714 225.597 252.38 199.132 262.242C172.668 272.103 143.761 273.679 116.355 266.756C88.9479 259.832 64.3758 244.745 45.9899 223.553C27.6041 202.361 16.2997 176.096 13.6187 148.34C10.9377 120.584 17.0106 92.6886 31.0091 68.4589C45.0075 44.2293 66.25 24.8449 91.8389 12.95L150.5 135.5L261.756 55.8764Z" fill="#3DA434"/>
<path d="M121.738 200L130.762 179.584L132.106 181.824H120.042L122.346 179.392V185.472H117.738V177.6H135.69V180.96L127.37 200H121.738ZM146.747 200.384C144.869 200.384 143.227 200.107 141.819 199.552C140.411 198.976 139.312 198.176 138.523 197.152C137.733 196.107 137.339 194.891 137.339 193.504C137.339 192.117 137.723 190.944 138.491 189.984C139.28 189.003 140.379 188.267 141.787 187.776C143.195 187.264 144.848 187.008 146.747 187.008C148.667 187.008 150.331 187.264 151.739 187.776C153.168 188.267 154.267 189.003 155.035 189.984C155.824 190.944 156.219 192.117 156.219 193.504C156.219 194.891 155.824 196.107 155.035 197.152C154.245 198.176 153.136 198.976 151.707 199.552C150.299 200.107 148.645 200.384 146.747 200.384ZM146.747 196.576C148.048 196.576 149.072 196.288 149.819 195.712C150.587 195.136 150.971 194.347 150.971 193.344C150.971 192.341 150.587 191.563 149.819 191.008C149.072 190.432 148.048 190.144 146.747 190.144C145.467 190.144 144.453 190.432 143.707 191.008C142.96 191.563 142.587 192.341 142.587 193.344C142.587 194.347 142.96 195.136 143.707 195.712C144.453 196.288 145.467 196.576 146.747 196.576ZM146.747 189.632C145.019 189.632 143.504 189.397 142.203 188.928C140.923 188.459 139.92 187.776 139.195 186.88C138.491 185.963 138.139 184.875 138.139 183.616C138.139 182.293 138.501 181.163 139.227 180.224C139.952 179.264 140.965 178.528 142.267 178.016C143.568 177.483 145.061 177.216 146.747 177.216C148.475 177.216 149.979 177.483 151.259 178.016C152.56 178.528 153.573 179.264 154.299 180.224C155.045 181.163 155.419 182.293 155.419 183.616C155.419 184.875 155.056 185.963 154.331 186.88C153.627 187.776 152.624 188.459 151.323 188.928C150.021 189.397 148.496 189.632 146.747 189.632ZM146.747 186.592C147.835 186.592 148.688 186.347 149.307 185.856C149.947 185.365 150.267 184.693 150.267 183.84C150.267 182.944 149.936 182.251 149.275 181.76C148.635 181.269 147.792 181.024 146.747 181.024C145.723 181.024 144.891 181.269 144.251 181.76C143.611 182.251 143.291 182.944 143.291 183.84C143.291 184.693 143.6 185.365 144.219 185.856C144.837 186.347 145.68 186.592 146.747 186.592ZM161.511 200L176.807 177.6H180.615L165.319 200H161.511ZM163.463 189.696C162.375 189.696 161.415 189.451 160.583 188.96C159.751 188.448 159.09 187.733 158.599 186.816C158.13 185.877 157.895 184.779 157.895 183.52C157.895 182.261 158.13 181.173 158.599 180.256C159.09 179.339 159.751 178.624 160.583 178.112C161.415 177.6 162.375 177.344 163.463 177.344C164.551 177.344 165.511 177.6 166.343 178.112C167.175 178.624 167.826 179.339 168.295 180.256C168.765 181.173 168.999 182.261 168.999 183.52C168.999 184.779 168.765 185.877 168.295 186.816C167.826 187.733 167.175 188.448 166.343 188.96C165.511 189.451 164.551 189.696 163.463 189.696ZM163.463 187.072C164.167 187.072 164.733 186.784 165.159 186.208C165.586 185.611 165.799 184.715 165.799 183.52C165.799 182.325 165.586 181.44 165.159 180.864C164.733 180.267 164.167 179.968 163.463 179.968C162.781 179.968 162.215 180.267 161.767 180.864C161.341 181.44 161.127 182.325 161.127 183.52C161.127 184.693 161.341 185.579 161.767 186.176C162.215 186.773 162.781 187.072 163.463 187.072ZM178.663 200.256C177.597 200.256 176.637 200.011 175.783 199.52C174.951 199.008 174.301 198.293 173.831 197.376C173.362 196.437 173.127 195.339 173.127 194.08C173.127 192.821 173.362 191.733 173.831 190.816C174.301 189.899 174.951 189.184 175.783 188.672C176.637 188.16 177.597 187.904 178.663 187.904C179.773 187.904 180.743 188.16 181.575 188.672C182.407 189.184 183.058 189.899 183.527 190.816C183.997 191.733 184.231 192.821 184.231 194.08C184.231 195.339 183.997 196.437 183.527 197.376C183.058 198.293 182.407 199.008 181.575 199.52C180.743 200.011 179.773 200.256 178.663 200.256ZM178.663 197.632C179.367 197.632 179.933 197.344 180.359 196.768C180.786 196.171 180.999 195.275 180.999 194.08C180.999 192.907 180.786 192.021 180.359 191.424C179.933 190.827 179.367 190.528 178.663 190.528C177.981 190.528 177.415 190.827 176.967 191.424C176.541 192 176.327 192.885 176.327 194.08C176.327 195.275 176.541 196.171 176.967 196.768C177.415 197.344 177.981 197.632 178.663 197.632Z" fill="white"/>
<path d="M107.816 43L116.84 22.584L118.184 24.824H106.12L108.424 22.392V28.472H103.816V20.6H121.768V23.96L113.448 43H107.816ZM127.433 43L142.729 20.6H146.537L131.241 43H127.433ZM129.385 32.696C128.297 32.696 127.337 32.4507 126.505 31.96C125.673 31.448 125.012 30.7333 124.521 29.816C124.052 28.8773 123.817 27.7787 123.817 26.52C123.817 25.2613 124.052 24.1733 124.521 23.256C125.012 22.3387 125.673 21.624 126.505 21.112C127.337 20.6 128.297 20.344 129.385 20.344C130.473 20.344 131.433 20.6 132.265 21.112C133.097 21.624 133.748 22.3387 134.217 23.256C134.686 24.1733 134.921 25.2613 134.921 26.52C134.921 27.7787 134.686 28.8773 134.217 29.816C133.748 30.7333 133.097 31.448 132.265 31.96C131.433 32.4507 130.473 32.696 129.385 32.696ZM129.385 30.072C130.089 30.072 130.654 29.784 131.081 29.208C131.508 28.6107 131.721 27.7147 131.721 26.52C131.721 25.3253 131.508 24.44 131.081 23.864C130.654 23.2667 130.089 22.968 129.385 22.968C128.702 22.968 128.137 23.2667 127.689 23.864C127.262 24.44 127.049 25.3253 127.049 26.52C127.049 27.6933 127.262 28.5787 127.689 29.176C128.137 29.7733 128.702 30.072 129.385 30.072ZM144.585 43.256C143.518 43.256 142.558 43.0107 141.705 42.52C140.873 42.008 140.222 41.2933 139.753 40.376C139.284 39.4373 139.049 38.3387 139.049 37.08C139.049 35.8213 139.284 34.7333 139.753 33.816C140.222 32.8987 140.873 32.184 141.705 31.672C142.558 31.16 143.518 30.904 144.585 30.904C145.694 30.904 146.665 31.16 147.497 31.672C148.329 32.184 148.98 32.8987 149.449 33.816C149.918 34.7333 150.153 35.8213 150.153 37.08C150.153 38.3387 149.918 39.4373 149.449 40.376C148.98 41.2933 148.329 42.008 147.497 42.52C146.665 43.0107 145.694 43.256 144.585 43.256ZM144.585 40.632C145.289 40.632 145.854 40.344 146.281 39.768C146.708 39.1707 146.921 38.2747 146.921 37.08C146.921 35.9067 146.708 35.0213 146.281 34.424C145.854 33.8267 145.289 33.528 144.585 33.528C143.902 33.528 143.337 33.8267 142.889 34.424C142.462 35 142.249 35.8853 142.249 37.08C142.249 38.2747 142.462 39.1707 142.889 39.768C143.337 40.344 143.902 40.632 144.585 40.632Z" fill="white"/>
<path d="M164.048 84V63.52L166.288 65.76H159.568V61.6H169.232V84H164.048ZM180.739 84.384C179.182 84.384 177.635 84.1813 176.099 83.776C174.584 83.3493 173.283 82.752 172.195 81.984L174.243 78.016C175.096 78.6347 176.078 79.1253 177.187 79.488C178.318 79.8507 179.459 80.032 180.611 80.032C181.912 80.032 182.936 79.776 183.683 79.264C184.43 78.752 184.803 78.0373 184.803 77.12C184.803 76.544 184.654 76.032 184.355 75.584C184.056 75.136 183.523 74.7947 182.755 74.56C182.008 74.3253 180.952 74.208 179.587 74.208H173.859L175.011 61.6H188.675V65.76H176.867L179.555 63.392L178.755 72.384L176.067 70.016H180.803C183.022 70.016 184.803 70.3253 186.147 70.944C187.512 71.5413 188.504 72.3627 189.123 73.408C189.742 74.4533 190.051 75.6373 190.051 76.96C190.051 78.2827 189.72 79.5093 189.059 80.64C188.398 81.7493 187.374 82.656 185.987 83.36C184.622 84.0427 182.872 84.384 180.739 84.384ZM195.074 84L210.37 61.6H214.178L198.882 84H195.074ZM197.026 73.696C195.938 73.696 194.978 73.4507 194.146 72.96C193.314 72.448 192.652 71.7333 192.162 70.816C191.692 69.8773 191.458 68.7787 191.458 67.52C191.458 66.2613 191.692 65.1733 192.162 64.256C192.652 63.3387 193.314 62.624 194.146 62.112C194.978 61.6 195.938 61.344 197.026 61.344C198.114 61.344 199.074 61.6 199.906 62.112C200.738 62.624 201.388 63.3387 201.858 64.256C202.327 65.1733 202.562 66.2613 202.562 67.52C202.562 68.7787 202.327 69.8773 201.858 70.816C201.388 71.7333 200.738 72.448 199.906 72.96C199.074 73.4507 198.114 73.696 197.026 73.696ZM197.026 71.072C197.73 71.072 198.295 70.784 198.722 70.208C199.148 69.6107 199.362 68.7147 199.362 67.52C199.362 66.3253 199.148 65.44 198.722 64.864C198.295 64.2667 197.73 63.968 197.026 63.968C196.343 63.968 195.778 64.2667 195.33 64.864C194.903 65.44 194.69 66.3253 194.69 67.52C194.69 68.6933 194.903 69.5787 195.33 70.176C195.778 70.7733 196.343 71.072 197.026 71.072ZM212.226 84.256C211.159 84.256 210.199 84.0107 209.346 83.52C208.514 83.008 207.863 82.2933 207.394 81.376C206.924 80.4373 206.69 79.3387 206.69 78.08C206.69 76.8213 206.924 75.7333 207.394 74.816C207.863 73.8987 208.514 73.184 209.346 72.672C210.199 72.16 211.159 71.904 212.226 71.904C213.335 71.904 214.306 72.16 215.138 72.672C215.97 73.184 216.62 73.8987 217.09 74.816C217.559 75.7333 217.794 76.8213 217.794 78.08C217.794 79.3387 217.559 80.4373 217.09 81.376C216.62 82.2933 215.97 83.008 215.138 83.52C214.306 84.0107 213.335 84.256 212.226 84.256ZM212.226 81.632C212.93 81.632 213.495 81.344 213.922 80.768C214.348 80.1707 214.562 79.2747 214.562 78.08C214.562 76.9067 214.348 76.0213 213.922 75.424C213.495 74.8267 212.93 74.528 212.226 74.528C211.543 74.528 210.978 74.8267 210.53 75.424C210.103 76 209.89 76.8853 209.89 78.08C209.89 79.2747 210.103 80.1707 210.53 80.768C210.978 81.344 211.543 81.632 212.226 81.632Z" fill="white"/>
</svg>
